<mxfile host="app.diagrams.net" modified="2023-01-24T06:46:35.785Z" agent="5.0 (Macintosh; Intel Mac OS X 10_15_7) AppleWebKit/537.36 (KHTML, like Gecko) Chrome/109.0.0.0 Safari/537.36" etag="Su-KjHKYYsWnyPlKy_z4" version="20.8.6" type="github" pages="3">
  <diagram id="SK_hPOl8nvWw7LeJ0ANh" name="EKYC_Architecture">
    <mxGraphModel dx="954" dy="624" grid="1" gridSize="10" guides="1" tooltips="1" connect="1" arrows="1" fold="1" page="1" pageScale="1" pageWidth="850" pageHeight="1100" math="0" shadow="0">
      <root>
        <mxCell id="0" />
        <mxCell id="1" parent="0" />
        <mxCell id="prQntA-7SHKjKHAfbLsv-11" value="" style="rounded=0;whiteSpace=wrap;html=1;fillColor=#b1ddf0;strokeColor=#10739e;" parent="1" vertex="1">
          <mxGeometry x="81.5" y="320" width="720" height="360" as="geometry" />
        </mxCell>
        <mxCell id="prQntA-7SHKjKHAfbLsv-28" style="edgeStyle=orthogonalEdgeStyle;rounded=0;orthogonalLoop=1;jettySize=auto;html=1;fontSize=13;" parent="1" source="prQntA-7SHKjKHAfbLsv-25" target="prQntA-7SHKjKHAfbLsv-26" edge="1">
          <mxGeometry relative="1" as="geometry">
            <Array as="points">
              <mxPoint x="440" y="350" />
              <mxPoint x="170" y="350" />
            </Array>
          </mxGeometry>
        </mxCell>
        <mxCell id="prQntA-7SHKjKHAfbLsv-25" value="Cloud Firewall" style="aspect=fixed;perimeter=ellipsePerimeter;html=1;align=center;shadow=0;dashed=0;spacingTop=3;image;image=img/lib/active_directory/firewall.svg;fontSize=13;fillColor=default;" parent="1" vertex="1">
          <mxGeometry x="425" y="290" width="30.5" height="50" as="geometry" />
        </mxCell>
        <mxCell id="prQntA-7SHKjKHAfbLsv-9" value="" style="edgeStyle=orthogonalEdgeStyle;rounded=0;orthogonalLoop=1;jettySize=auto;html=1;" parent="1" source="prQntA-7SHKjKHAfbLsv-1" target="prQntA-7SHKjKHAfbLsv-8" edge="1">
          <mxGeometry relative="1" as="geometry" />
        </mxCell>
        <mxCell id="prQntA-7SHKjKHAfbLsv-1" value="" style="rounded=0;whiteSpace=wrap;html=1;fillColor=#dae8fc;gradientColor=#7ea6e0;strokeColor=#6c8ebf;" parent="1" vertex="1">
          <mxGeometry x="120" y="40" width="640" height="70" as="geometry" />
        </mxCell>
        <mxCell id="prQntA-7SHKjKHAfbLsv-2" value="&lt;b&gt;Applications&lt;/b&gt;" style="text;html=1;align=center;verticalAlign=middle;whiteSpace=wrap;rounded=0;fillColor=default;" parent="1" vertex="1">
          <mxGeometry x="400" y="20" width="90" height="30" as="geometry" />
        </mxCell>
        <mxCell id="prQntA-7SHKjKHAfbLsv-3" value="Customer Portal" style="rounded=1;whiteSpace=wrap;html=1;fillColor=#fff2cc;gradientColor=#ffd966;strokeColor=#d6b656;" parent="1" vertex="1">
          <mxGeometry x="140" y="50" width="120" height="55" as="geometry" />
        </mxCell>
        <mxCell id="prQntA-7SHKjKHAfbLsv-4" value="MChoice App" style="rounded=1;whiteSpace=wrap;html=1;fillColor=#ffcd28;gradientColor=#ffa500;strokeColor=#d79b00;" parent="1" vertex="1">
          <mxGeometry x="280" y="47.5" width="90" height="55" as="geometry" />
        </mxCell>
        <mxCell id="prQntA-7SHKjKHAfbLsv-5" value="ISNP Web" style="rounded=1;whiteSpace=wrap;html=1;fillColor=#fff2cc;gradientColor=#ffd966;strokeColor=#d6b656;" parent="1" vertex="1">
          <mxGeometry x="390" y="47.5" width="100" height="55" as="geometry" />
        </mxCell>
        <mxCell id="prQntA-7SHKjKHAfbLsv-6" value="Customer Mobile App" style="rounded=1;whiteSpace=wrap;html=1;fillColor=#ffcd28;gradientColor=#ffa500;strokeColor=#d79b00;" parent="1" vertex="1">
          <mxGeometry x="500" y="47.5" width="100" height="55" as="geometry" />
        </mxCell>
        <mxCell id="prQntA-7SHKjKHAfbLsv-7" value="Digital Journey" style="rounded=1;whiteSpace=wrap;html=1;fillColor=#fff2cc;gradientColor=#ffd966;strokeColor=#d6b656;" parent="1" vertex="1">
          <mxGeometry x="620" y="47.5" width="120" height="55" as="geometry" />
        </mxCell>
        <mxCell id="prQntA-7SHKjKHAfbLsv-21" style="edgeStyle=orthogonalEdgeStyle;rounded=0;orthogonalLoop=1;jettySize=auto;html=1;fontSize=13;" parent="1" source="prQntA-7SHKjKHAfbLsv-8" target="prQntA-7SHKjKHAfbLsv-11" edge="1">
          <mxGeometry relative="1" as="geometry" />
        </mxCell>
        <mxCell id="prQntA-7SHKjKHAfbLsv-8" value="HTTPS URL" style="outlineConnect=0;dashed=0;verticalLabelPosition=bottom;verticalAlign=top;align=center;html=1;shape=mxgraph.aws3.ssl_padlock;fillColor=#D2D3D3;gradientColor=none;" parent="1" vertex="1">
          <mxGeometry x="408.5" y="150" width="63" height="78" as="geometry" />
        </mxCell>
        <mxCell id="prQntA-7SHKjKHAfbLsv-16" style="edgeStyle=orthogonalEdgeStyle;rounded=0;orthogonalLoop=1;jettySize=auto;html=1;fontSize=13;" parent="1" source="prQntA-7SHKjKHAfbLsv-11" target="prQntA-7SHKjKHAfbLsv-15" edge="1">
          <mxGeometry relative="1" as="geometry" />
        </mxCell>
        <mxCell id="prQntA-7SHKjKHAfbLsv-23" style="edgeStyle=orthogonalEdgeStyle;rounded=0;orthogonalLoop=1;jettySize=auto;html=1;fontSize=13;" parent="1" source="prQntA-7SHKjKHAfbLsv-11" edge="1">
          <mxGeometry relative="1" as="geometry">
            <mxPoint x="440" y="230" as="targetPoint" />
          </mxGeometry>
        </mxCell>
        <mxCell id="prQntA-7SHKjKHAfbLsv-12" value="&lt;b&gt;&lt;font style=&quot;font-size: 13px;&quot;&gt;Choice Private Cloud&lt;/font&gt;&lt;/b&gt;" style="text;html=1;strokeColor=none;fillColor=default;align=center;verticalAlign=middle;whiteSpace=wrap;rounded=0;" parent="1" vertex="1">
          <mxGeometry x="90" y="300" width="140" height="30" as="geometry" />
        </mxCell>
        <mxCell id="prQntA-7SHKjKHAfbLsv-19" style="edgeStyle=orthogonalEdgeStyle;rounded=0;orthogonalLoop=1;jettySize=auto;html=1;fontSize=13;" parent="1" source="prQntA-7SHKjKHAfbLsv-13" edge="1">
          <mxGeometry relative="1" as="geometry">
            <mxPoint x="441.5" y="810" as="targetPoint" />
          </mxGeometry>
        </mxCell>
        <mxCell id="prQntA-7SHKjKHAfbLsv-20" style="edgeStyle=orthogonalEdgeStyle;rounded=0;orthogonalLoop=1;jettySize=auto;html=1;fontSize=13;" parent="1" source="prQntA-7SHKjKHAfbLsv-13" target="prQntA-7SHKjKHAfbLsv-15" edge="1">
          <mxGeometry relative="1" as="geometry" />
        </mxCell>
        <mxCell id="prQntA-7SHKjKHAfbLsv-13" value="" style="rounded=0;whiteSpace=wrap;html=1;fillColor=#fad7ac;strokeColor=#b46504;" parent="1" vertex="1">
          <mxGeometry x="81.5" y="836" width="720" height="304" as="geometry" />
        </mxCell>
        <mxCell id="prQntA-7SHKjKHAfbLsv-14" value="&lt;span style=&quot;font-size: 13px;&quot;&gt;&lt;b&gt;Choice DC&lt;/b&gt;&lt;/span&gt;" style="text;html=1;strokeColor=none;fillColor=default;align=center;verticalAlign=middle;whiteSpace=wrap;rounded=0;" parent="1" vertex="1">
          <mxGeometry x="90" y="806" width="140" height="30" as="geometry" />
        </mxCell>
        <mxCell id="prQntA-7SHKjKHAfbLsv-17" value="" style="edgeStyle=orthogonalEdgeStyle;rounded=0;orthogonalLoop=1;jettySize=auto;html=1;fontSize=13;" parent="1" source="prQntA-7SHKjKHAfbLsv-15" target="prQntA-7SHKjKHAfbLsv-13" edge="1">
          <mxGeometry relative="1" as="geometry" />
        </mxCell>
        <mxCell id="prQntA-7SHKjKHAfbLsv-18" style="edgeStyle=orthogonalEdgeStyle;rounded=0;orthogonalLoop=1;jettySize=auto;html=1;fontSize=13;" parent="1" source="prQntA-7SHKjKHAfbLsv-15" edge="1">
          <mxGeometry relative="1" as="geometry">
            <mxPoint x="441.5" y="680" as="targetPoint" />
          </mxGeometry>
        </mxCell>
        <mxCell id="prQntA-7SHKjKHAfbLsv-43" style="edgeStyle=orthogonalEdgeStyle;rounded=0;orthogonalLoop=1;jettySize=auto;html=1;entryX=0.5;entryY=1;entryDx=0;entryDy=0;entryPerimeter=0;fontSize=13;" parent="1" source="prQntA-7SHKjKHAfbLsv-15" target="prQntA-7SHKjKHAfbLsv-30" edge="1">
          <mxGeometry relative="1" as="geometry" />
        </mxCell>
        <mxCell id="prQntA-7SHKjKHAfbLsv-15" value="AWS Direct Connect" style="sketch=0;outlineConnect=0;fontColor=#232F3E;gradientColor=none;strokeColor=#ffffff;fillColor=#232F3E;dashed=0;verticalLabelPosition=middle;verticalAlign=bottom;align=center;html=1;whiteSpace=wrap;fontSize=10;fontStyle=1;spacing=3;shape=mxgraph.aws4.productIcon;prIcon=mxgraph.aws4.direct_connect;" parent="1" vertex="1">
          <mxGeometry x="411.5" y="716" width="60" height="84" as="geometry" />
        </mxCell>
        <mxCell id="prQntA-7SHKjKHAfbLsv-29" style="edgeStyle=orthogonalEdgeStyle;rounded=0;orthogonalLoop=1;jettySize=auto;html=1;fontSize=13;" parent="1" source="prQntA-7SHKjKHAfbLsv-26" target="prQntA-7SHKjKHAfbLsv-27" edge="1">
          <mxGeometry relative="1" as="geometry" />
        </mxCell>
        <mxCell id="prQntA-7SHKjKHAfbLsv-26" value="WSO2 Gateway" style="sketch=0;outlineConnect=0;fontColor=#232F3E;gradientColor=none;strokeColor=#232F3E;fillColor=#ffffff;dashed=0;verticalLabelPosition=bottom;verticalAlign=top;align=center;html=1;fontSize=12;fontStyle=0;aspect=fixed;shape=mxgraph.aws4.resourceIcon;resIcon=mxgraph.aws4.nat_gateway;" parent="1" vertex="1">
          <mxGeometry x="140" y="390" width="60" height="60" as="geometry" />
        </mxCell>
        <mxCell id="prQntA-7SHKjKHAfbLsv-40" style="edgeStyle=orthogonalEdgeStyle;rounded=0;orthogonalLoop=1;jettySize=auto;html=1;entryX=0;entryY=0.5;entryDx=0;entryDy=0;entryPerimeter=0;fontSize=13;" parent="1" source="prQntA-7SHKjKHAfbLsv-27" target="prQntA-7SHKjKHAfbLsv-30" edge="1">
          <mxGeometry relative="1" as="geometry" />
        </mxCell>
        <mxCell id="prQntA-7SHKjKHAfbLsv-27" value="EKS Network Security&lt;br&gt;Groups" style="sketch=0;outlineConnect=0;fontColor=#232F3E;gradientColor=none;fillColor=#232F3D;strokeColor=none;dashed=0;verticalLabelPosition=bottom;verticalAlign=top;align=center;html=1;fontSize=12;fontStyle=0;aspect=fixed;pointerEvents=1;shape=mxgraph.aws4.generic_firewall;" parent="1" vertex="1">
          <mxGeometry x="270" y="390" width="70" height="59.23" as="geometry" />
        </mxCell>
        <mxCell id="prQntA-7SHKjKHAfbLsv-41" style="edgeStyle=orthogonalEdgeStyle;rounded=0;orthogonalLoop=1;jettySize=auto;html=1;fontSize=13;" parent="1" source="prQntA-7SHKjKHAfbLsv-30" target="prQntA-7SHKjKHAfbLsv-27" edge="1">
          <mxGeometry relative="1" as="geometry" />
        </mxCell>
        <mxCell id="prQntA-7SHKjKHAfbLsv-42" style="edgeStyle=orthogonalEdgeStyle;rounded=0;orthogonalLoop=1;jettySize=auto;html=1;fontSize=13;" parent="1" source="prQntA-7SHKjKHAfbLsv-30" target="prQntA-7SHKjKHAfbLsv-15" edge="1">
          <mxGeometry relative="1" as="geometry" />
        </mxCell>
        <mxCell id="prQntA-7SHKjKHAfbLsv-30" value="WSO2 ESB Cluster" style="outlineConnect=0;dashed=0;verticalLabelPosition=bottom;verticalAlign=top;align=center;html=1;shape=mxgraph.aws3.emr_cluster;fillColor=#F58534;gradientColor=none;fontSize=13;" parent="1" vertex="1">
          <mxGeometry x="434.5" y="390" width="55.5" height="63" as="geometry" />
        </mxCell>
        <mxCell id="prQntA-7SHKjKHAfbLsv-34" style="edgeStyle=orthogonalEdgeStyle;rounded=0;orthogonalLoop=1;jettySize=auto;html=1;fontSize=13;" parent="1" source="prQntA-7SHKjKHAfbLsv-31" target="prQntA-7SHKjKHAfbLsv-33" edge="1">
          <mxGeometry relative="1" as="geometry" />
        </mxCell>
        <mxCell id="prQntA-7SHKjKHAfbLsv-44" style="edgeStyle=orthogonalEdgeStyle;rounded=0;orthogonalLoop=1;jettySize=auto;html=1;entryX=0;entryY=0.5;entryDx=0;entryDy=0;fontSize=13;" parent="1" source="prQntA-7SHKjKHAfbLsv-31" target="prQntA-7SHKjKHAfbLsv-38" edge="1">
          <mxGeometry relative="1" as="geometry">
            <Array as="points">
              <mxPoint x="215" y="858" />
            </Array>
          </mxGeometry>
        </mxCell>
        <mxCell id="prQntA-7SHKjKHAfbLsv-31" value="Vault API Integration&amp;nbsp;&lt;br&gt;Server" style="aspect=fixed;perimeter=ellipsePerimeter;html=1;align=center;shadow=0;dashed=0;spacingTop=3;image;image=img/lib/active_directory/web_server.svg;fontSize=13;fillColor=default;" parent="1" vertex="1">
          <mxGeometry x="180" y="950" width="70" height="87.5" as="geometry" />
        </mxCell>
        <mxCell id="prQntA-7SHKjKHAfbLsv-36" style="edgeStyle=orthogonalEdgeStyle;rounded=0;orthogonalLoop=1;jettySize=auto;html=1;fontSize=13;" parent="1" source="prQntA-7SHKjKHAfbLsv-32" target="prQntA-7SHKjKHAfbLsv-33" edge="1">
          <mxGeometry relative="1" as="geometry" />
        </mxCell>
        <mxCell id="prQntA-7SHKjKHAfbLsv-32" value="HSM Vault" style="sketch=0;outlineConnect=0;fontColor=#232F3E;gradientColor=none;strokeColor=#232F3E;fillColor=#ffffff;dashed=0;verticalLabelPosition=bottom;verticalAlign=top;align=center;html=1;fontSize=12;fontStyle=0;aspect=fixed;shape=mxgraph.aws4.resourceIcon;resIcon=mxgraph.aws4.vault;" parent="1" vertex="1">
          <mxGeometry x="500" y="964" width="60" height="60" as="geometry" />
        </mxCell>
        <mxCell id="prQntA-7SHKjKHAfbLsv-35" style="edgeStyle=orthogonalEdgeStyle;rounded=0;orthogonalLoop=1;jettySize=auto;html=1;fontSize=13;" parent="1" source="prQntA-7SHKjKHAfbLsv-33" target="prQntA-7SHKjKHAfbLsv-32" edge="1">
          <mxGeometry relative="1" as="geometry" />
        </mxCell>
        <mxCell id="prQntA-7SHKjKHAfbLsv-37" style="edgeStyle=orthogonalEdgeStyle;rounded=0;orthogonalLoop=1;jettySize=auto;html=1;fontSize=13;" parent="1" source="prQntA-7SHKjKHAfbLsv-33" target="prQntA-7SHKjKHAfbLsv-31" edge="1">
          <mxGeometry relative="1" as="geometry" />
        </mxCell>
        <mxCell id="prQntA-7SHKjKHAfbLsv-33" value="" style="image;html=1;image=img/lib/clip_art/networking/Firewall_128x128.png;fontSize=13;fillColor=default;" parent="1" vertex="1">
          <mxGeometry x="329" y="964" width="80" height="80" as="geometry" />
        </mxCell>
        <mxCell id="prQntA-7SHKjKHAfbLsv-39" style="edgeStyle=orthogonalEdgeStyle;rounded=0;orthogonalLoop=1;jettySize=auto;html=1;fontSize=13;" parent="1" source="prQntA-7SHKjKHAfbLsv-38" target="prQntA-7SHKjKHAfbLsv-31" edge="1">
          <mxGeometry relative="1" as="geometry" />
        </mxCell>
        <mxCell id="prQntA-7SHKjKHAfbLsv-38" value="Firewall" style="image;html=1;image=img/lib/clip_art/networking/Firewall_02_128x128.png;fontSize=13;fillColor=default;" parent="1" vertex="1">
          <mxGeometry x="401.5" y="836" width="80" height="44" as="geometry" />
        </mxCell>
      </root>
    </mxGraphModel>
  </diagram>
  <diagram id="eBicX5OQ2n-09y2sGNrT" name="UAT Architecture">
    <mxGraphModel dx="1804" dy="624" grid="1" gridSize="10" guides="1" tooltips="1" connect="1" arrows="1" fold="1" page="1" pageScale="1" pageWidth="850" pageHeight="1100" math="0" shadow="0">
      <root>
        <mxCell id="0" />
        <mxCell id="1" parent="0" />
        <mxCell id="sU1Qf5dH0IQGYXK_MLQd-1" value="" style="rounded=0;whiteSpace=wrap;html=1;fillColor=#b1ddf0;strokeColor=#10739e;" parent="1" vertex="1">
          <mxGeometry x="80" y="330" width="720" height="360" as="geometry" />
        </mxCell>
        <mxCell id="sU1Qf5dH0IQGYXK_MLQd-2" style="edgeStyle=orthogonalEdgeStyle;rounded=0;orthogonalLoop=1;jettySize=auto;html=1;fontSize=13;" parent="1" source="sU1Qf5dH0IQGYXK_MLQd-3" target="sU1Qf5dH0IQGYXK_MLQd-24" edge="1">
          <mxGeometry relative="1" as="geometry">
            <Array as="points">
              <mxPoint x="440" y="350" />
              <mxPoint x="170" y="350" />
            </Array>
          </mxGeometry>
        </mxCell>
        <mxCell id="0UItUe9iYHpbRCy2EA7e-1" value="" style="edgeStyle=orthogonalEdgeStyle;rounded=0;orthogonalLoop=1;jettySize=auto;html=1;" edge="1" parent="1" source="sU1Qf5dH0IQGYXK_MLQd-3" target="sU1Qf5dH0IQGYXK_MLQd-29">
          <mxGeometry relative="1" as="geometry" />
        </mxCell>
        <mxCell id="sU1Qf5dH0IQGYXK_MLQd-3" value="Palo Alto Internet&lt;br&gt;Firewall" style="aspect=fixed;perimeter=ellipsePerimeter;html=1;align=center;shadow=0;dashed=0;spacingTop=3;image;image=img/lib/active_directory/firewall.svg;fontSize=13;fillColor=default;" parent="1" vertex="1">
          <mxGeometry x="425" y="290" width="30.5" height="50" as="geometry" />
        </mxCell>
        <mxCell id="sU1Qf5dH0IQGYXK_MLQd-4" value="" style="edgeStyle=orthogonalEdgeStyle;rounded=0;orthogonalLoop=1;jettySize=auto;html=1;" parent="1" source="sU1Qf5dH0IQGYXK_MLQd-5" target="sU1Qf5dH0IQGYXK_MLQd-13" edge="1">
          <mxGeometry relative="1" as="geometry" />
        </mxCell>
        <mxCell id="sU1Qf5dH0IQGYXK_MLQd-5" value="" style="rounded=0;whiteSpace=wrap;html=1;fillColor=#dae8fc;gradientColor=#7ea6e0;strokeColor=#6c8ebf;" parent="1" vertex="1">
          <mxGeometry x="120" y="40" width="640" height="70" as="geometry" />
        </mxCell>
        <mxCell id="sU1Qf5dH0IQGYXK_MLQd-6" value="&lt;b&gt;Applications&lt;/b&gt;" style="text;html=1;align=center;verticalAlign=middle;whiteSpace=wrap;rounded=0;fillColor=default;" parent="1" vertex="1">
          <mxGeometry x="400" y="20" width="90" height="30" as="geometry" />
        </mxCell>
        <mxCell id="sU1Qf5dH0IQGYXK_MLQd-7" value="Customer Portal" style="rounded=1;whiteSpace=wrap;html=1;fillColor=#fff2cc;gradientColor=#ffd966;strokeColor=#d6b656;" parent="1" vertex="1">
          <mxGeometry x="140" y="50" width="120" height="55" as="geometry" />
        </mxCell>
        <mxCell id="sU1Qf5dH0IQGYXK_MLQd-8" value="MChoice App" style="rounded=1;whiteSpace=wrap;html=1;fillColor=#ffcd28;gradientColor=#ffa500;strokeColor=#d79b00;" parent="1" vertex="1">
          <mxGeometry x="280" y="47.5" width="90" height="55" as="geometry" />
        </mxCell>
        <mxCell id="sU1Qf5dH0IQGYXK_MLQd-9" value="ISNP Web" style="rounded=1;whiteSpace=wrap;html=1;fillColor=#fff2cc;gradientColor=#ffd966;strokeColor=#d6b656;" parent="1" vertex="1">
          <mxGeometry x="390" y="47.5" width="100" height="55" as="geometry" />
        </mxCell>
        <mxCell id="sU1Qf5dH0IQGYXK_MLQd-10" value="Customer Mobile App" style="rounded=1;whiteSpace=wrap;html=1;fillColor=#ffcd28;gradientColor=#ffa500;strokeColor=#d79b00;" parent="1" vertex="1">
          <mxGeometry x="500" y="47.5" width="100" height="55" as="geometry" />
        </mxCell>
        <mxCell id="sU1Qf5dH0IQGYXK_MLQd-11" value="Digital Journey" style="rounded=1;whiteSpace=wrap;html=1;fillColor=#fff2cc;gradientColor=#ffd966;strokeColor=#d6b656;" parent="1" vertex="1">
          <mxGeometry x="620" y="47.5" width="120" height="55" as="geometry" />
        </mxCell>
        <mxCell id="sU1Qf5dH0IQGYXK_MLQd-12" style="edgeStyle=orthogonalEdgeStyle;rounded=0;orthogonalLoop=1;jettySize=auto;html=1;fontSize=13;" parent="1" source="sU1Qf5dH0IQGYXK_MLQd-13" target="sU1Qf5dH0IQGYXK_MLQd-1" edge="1">
          <mxGeometry relative="1" as="geometry" />
        </mxCell>
        <mxCell id="sU1Qf5dH0IQGYXK_MLQd-13" value="https://egw-uat.canarahsbclife.com" style="outlineConnect=0;dashed=0;verticalLabelPosition=bottom;verticalAlign=top;align=center;html=1;shape=mxgraph.aws3.ssl_padlock;fillColor=#D2D3D3;gradientColor=none;" parent="1" vertex="1">
          <mxGeometry x="408.5" y="150" width="63" height="78" as="geometry" />
        </mxCell>
        <mxCell id="sU1Qf5dH0IQGYXK_MLQd-14" style="edgeStyle=orthogonalEdgeStyle;rounded=0;orthogonalLoop=1;jettySize=auto;html=1;fontSize=13;" parent="1" source="sU1Qf5dH0IQGYXK_MLQd-1" edge="1">
          <mxGeometry relative="1" as="geometry">
            <mxPoint x="440" y="230" as="targetPoint" />
          </mxGeometry>
        </mxCell>
        <mxCell id="sU1Qf5dH0IQGYXK_MLQd-15" value="&lt;b&gt;&lt;font style=&quot;font-size: 13px;&quot;&gt;Choice Private Cloud&lt;/font&gt;&lt;/b&gt;" style="text;html=1;strokeColor=none;fillColor=default;align=center;verticalAlign=middle;whiteSpace=wrap;rounded=0;" parent="1" vertex="1">
          <mxGeometry x="90" y="300" width="140" height="30" as="geometry" />
        </mxCell>
        <mxCell id="sU1Qf5dH0IQGYXK_MLQd-16" style="edgeStyle=orthogonalEdgeStyle;rounded=0;orthogonalLoop=1;jettySize=auto;html=1;fontSize=13;" parent="1" source="sU1Qf5dH0IQGYXK_MLQd-18" edge="1">
          <mxGeometry relative="1" as="geometry">
            <mxPoint x="441.5" y="810" as="targetPoint" />
          </mxGeometry>
        </mxCell>
        <mxCell id="sU1Qf5dH0IQGYXK_MLQd-17" style="edgeStyle=orthogonalEdgeStyle;rounded=0;orthogonalLoop=1;jettySize=auto;html=1;fontSize=13;" parent="1" source="sU1Qf5dH0IQGYXK_MLQd-18" target="sU1Qf5dH0IQGYXK_MLQd-22" edge="1">
          <mxGeometry relative="1" as="geometry" />
        </mxCell>
        <mxCell id="sU1Qf5dH0IQGYXK_MLQd-18" value="" style="rounded=0;whiteSpace=wrap;html=1;fillColor=#fad7ac;strokeColor=#b46504;" parent="1" vertex="1">
          <mxGeometry x="81.5" y="836" width="720" height="304" as="geometry" />
        </mxCell>
        <mxCell id="sU1Qf5dH0IQGYXK_MLQd-19" value="&lt;span style=&quot;font-size: 13px;&quot;&gt;&lt;b&gt;Choice DC&lt;/b&gt;&lt;/span&gt;" style="text;html=1;strokeColor=none;fillColor=default;align=center;verticalAlign=middle;whiteSpace=wrap;rounded=0;" parent="1" vertex="1">
          <mxGeometry x="81.5" y="820" width="140" height="30" as="geometry" />
        </mxCell>
        <mxCell id="sU1Qf5dH0IQGYXK_MLQd-20" value="" style="edgeStyle=orthogonalEdgeStyle;rounded=0;orthogonalLoop=1;jettySize=auto;html=1;fontSize=13;" parent="1" source="sU1Qf5dH0IQGYXK_MLQd-22" target="sU1Qf5dH0IQGYXK_MLQd-18" edge="1">
          <mxGeometry relative="1" as="geometry" />
        </mxCell>
        <mxCell id="sU1Qf5dH0IQGYXK_MLQd-21" style="edgeStyle=orthogonalEdgeStyle;rounded=0;orthogonalLoop=1;jettySize=auto;html=1;entryX=0.5;entryY=1;entryDx=0;entryDy=0;entryPerimeter=0;fontSize=13;" parent="1" source="sU1Qf5dH0IQGYXK_MLQd-22" target="sU1Qf5dH0IQGYXK_MLQd-42" edge="1">
          <mxGeometry relative="1" as="geometry">
            <Array as="points">
              <mxPoint x="442" y="650" />
              <mxPoint x="648" y="650" />
            </Array>
          </mxGeometry>
        </mxCell>
        <mxCell id="sU1Qf5dH0IQGYXK_MLQd-22" value="AWS Direct Connect" style="sketch=0;outlineConnect=0;fontColor=#232F3E;gradientColor=none;strokeColor=#ffffff;fillColor=#232F3E;dashed=0;verticalLabelPosition=middle;verticalAlign=bottom;align=center;html=1;whiteSpace=wrap;fontSize=10;fontStyle=1;spacing=3;shape=mxgraph.aws4.productIcon;prIcon=mxgraph.aws4.direct_connect;" parent="1" vertex="1">
          <mxGeometry x="411.5" y="716" width="60" height="84" as="geometry" />
        </mxCell>
        <mxCell id="sU1Qf5dH0IQGYXK_MLQd-23" style="edgeStyle=orthogonalEdgeStyle;rounded=0;orthogonalLoop=1;jettySize=auto;html=1;fontSize=13;" parent="1" source="sU1Qf5dH0IQGYXK_MLQd-24" target="sU1Qf5dH0IQGYXK_MLQd-26" edge="1">
          <mxGeometry relative="1" as="geometry" />
        </mxCell>
        <mxCell id="sU1Qf5dH0IQGYXK_MLQd-24" value="WSO2 API Load&lt;br&gt;&amp;nbsp;Balancer" style="sketch=0;outlineConnect=0;fontColor=#232F3E;gradientColor=none;strokeColor=#232F3E;fillColor=#ffffff;dashed=0;verticalLabelPosition=bottom;verticalAlign=top;align=center;html=1;fontSize=12;fontStyle=0;aspect=fixed;shape=mxgraph.aws4.resourceIcon;resIcon=mxgraph.aws4.nat_gateway;" parent="1" vertex="1">
          <mxGeometry x="140" y="390" width="60" height="60" as="geometry" />
        </mxCell>
        <mxCell id="sU1Qf5dH0IQGYXK_MLQd-25" style="edgeStyle=orthogonalEdgeStyle;rounded=0;orthogonalLoop=1;jettySize=auto;html=1;fontSize=13;" parent="1" source="sU1Qf5dH0IQGYXK_MLQd-26" target="sU1Qf5dH0IQGYXK_MLQd-29" edge="1">
          <mxGeometry relative="1" as="geometry" />
        </mxCell>
        <mxCell id="sU1Qf5dH0IQGYXK_MLQd-26" value="EKS Network Security&lt;br&gt;Groups" style="sketch=0;outlineConnect=0;fontColor=#232F3E;gradientColor=none;fillColor=#232F3D;strokeColor=none;dashed=0;verticalLabelPosition=bottom;verticalAlign=top;align=center;html=1;fontSize=12;fontStyle=0;aspect=fixed;pointerEvents=1;shape=mxgraph.aws4.generic_firewall;" parent="1" vertex="1">
          <mxGeometry x="270" y="390" width="60" height="50.77" as="geometry" />
        </mxCell>
        <mxCell id="sU1Qf5dH0IQGYXK_MLQd-27" style="edgeStyle=orthogonalEdgeStyle;rounded=0;orthogonalLoop=1;jettySize=auto;html=1;fontSize=13;" parent="1" source="sU1Qf5dH0IQGYXK_MLQd-29" target="sU1Qf5dH0IQGYXK_MLQd-26" edge="1">
          <mxGeometry relative="1" as="geometry" />
        </mxCell>
        <mxCell id="sU1Qf5dH0IQGYXK_MLQd-28" style="edgeStyle=orthogonalEdgeStyle;rounded=0;orthogonalLoop=1;jettySize=auto;html=1;fontSize=13;" parent="1" source="sU1Qf5dH0IQGYXK_MLQd-29" target="sU1Qf5dH0IQGYXK_MLQd-44" edge="1">
          <mxGeometry relative="1" as="geometry" />
        </mxCell>
        <mxCell id="sU1Qf5dH0IQGYXK_MLQd-29" value="Gateway Cluster" style="outlineConnect=0;dashed=0;verticalLabelPosition=bottom;verticalAlign=top;align=center;html=1;shape=mxgraph.aws3.emr_cluster;fillColor=#F58534;gradientColor=none;fontSize=13;" parent="1" vertex="1">
          <mxGeometry x="470" y="420" width="55.5" height="63" as="geometry" />
        </mxCell>
        <mxCell id="sU1Qf5dH0IQGYXK_MLQd-31" style="edgeStyle=orthogonalEdgeStyle;rounded=0;orthogonalLoop=1;jettySize=auto;html=1;entryX=0;entryY=0.5;entryDx=0;entryDy=0;fontSize=13;" parent="1" source="sU1Qf5dH0IQGYXK_MLQd-32" target="sU1Qf5dH0IQGYXK_MLQd-39" edge="1">
          <mxGeometry relative="1" as="geometry">
            <Array as="points">
              <mxPoint x="215" y="858" />
            </Array>
          </mxGeometry>
        </mxCell>
        <mxCell id="0UItUe9iYHpbRCy2EA7e-3" style="edgeStyle=orthogonalEdgeStyle;rounded=0;orthogonalLoop=1;jettySize=auto;html=1;" edge="1" parent="1" source="sU1Qf5dH0IQGYXK_MLQd-32" target="0UItUe9iYHpbRCy2EA7e-2">
          <mxGeometry relative="1" as="geometry" />
        </mxCell>
        <mxCell id="sU1Qf5dH0IQGYXK_MLQd-32" value="Vault API Integration&amp;nbsp;&lt;br&gt;Server" style="aspect=fixed;perimeter=ellipsePerimeter;html=1;align=center;shadow=0;dashed=0;spacingTop=3;image;image=img/lib/active_directory/web_server.svg;fontSize=13;fillColor=default;" parent="1" vertex="1">
          <mxGeometry x="180" y="950" width="70" height="87.5" as="geometry" />
        </mxCell>
        <mxCell id="sU1Qf5dH0IQGYXK_MLQd-33" style="edgeStyle=orthogonalEdgeStyle;rounded=0;orthogonalLoop=1;jettySize=auto;html=1;fontSize=13;" parent="1" source="sU1Qf5dH0IQGYXK_MLQd-34" target="sU1Qf5dH0IQGYXK_MLQd-32" edge="1">
          <mxGeometry relative="1" as="geometry">
            <mxPoint x="409" y="1004" as="targetPoint" />
          </mxGeometry>
        </mxCell>
        <mxCell id="sU1Qf5dH0IQGYXK_MLQd-34" value="HSM Vault" style="sketch=0;outlineConnect=0;fontColor=#232F3E;gradientColor=none;strokeColor=#232F3E;fillColor=#ffffff;dashed=0;verticalLabelPosition=bottom;verticalAlign=top;align=center;html=1;fontSize=12;fontStyle=0;aspect=fixed;shape=mxgraph.aws4.resourceIcon;resIcon=mxgraph.aws4.vault;" parent="1" vertex="1">
          <mxGeometry x="650" y="950" width="60" height="60" as="geometry" />
        </mxCell>
        <mxCell id="sU1Qf5dH0IQGYXK_MLQd-35" style="edgeStyle=orthogonalEdgeStyle;rounded=0;orthogonalLoop=1;jettySize=auto;html=1;fontSize=13;" parent="1" source="sU1Qf5dH0IQGYXK_MLQd-32" target="sU1Qf5dH0IQGYXK_MLQd-34" edge="1">
          <mxGeometry relative="1" as="geometry">
            <mxPoint x="409" y="1004" as="sourcePoint" />
          </mxGeometry>
        </mxCell>
        <mxCell id="sU1Qf5dH0IQGYXK_MLQd-38" style="edgeStyle=orthogonalEdgeStyle;rounded=0;orthogonalLoop=1;jettySize=auto;html=1;fontSize=13;" parent="1" source="sU1Qf5dH0IQGYXK_MLQd-39" target="sU1Qf5dH0IQGYXK_MLQd-32" edge="1">
          <mxGeometry relative="1" as="geometry" />
        </mxCell>
        <mxCell id="sU1Qf5dH0IQGYXK_MLQd-39" value="Firewall" style="image;html=1;image=img/lib/clip_art/networking/Firewall_02_128x128.png;fontSize=13;fillColor=default;" parent="1" vertex="1">
          <mxGeometry x="401.5" y="836" width="80" height="44" as="geometry" />
        </mxCell>
        <mxCell id="sU1Qf5dH0IQGYXK_MLQd-40" style="edgeStyle=orthogonalEdgeStyle;rounded=0;orthogonalLoop=1;jettySize=auto;html=1;fontSize=13;" parent="1" source="sU1Qf5dH0IQGYXK_MLQd-42" target="sU1Qf5dH0IQGYXK_MLQd-22" edge="1">
          <mxGeometry relative="1" as="geometry">
            <Array as="points">
              <mxPoint x="648" y="650" />
              <mxPoint x="442" y="650" />
            </Array>
          </mxGeometry>
        </mxCell>
        <mxCell id="sU1Qf5dH0IQGYXK_MLQd-41" style="edgeStyle=orthogonalEdgeStyle;rounded=0;orthogonalLoop=1;jettySize=auto;html=1;entryX=0.864;entryY=0.756;entryDx=0;entryDy=0;entryPerimeter=0;fontSize=13;" parent="1" source="sU1Qf5dH0IQGYXK_MLQd-42" target="sU1Qf5dH0IQGYXK_MLQd-50" edge="1">
          <mxGeometry relative="1" as="geometry" />
        </mxCell>
        <mxCell id="sU1Qf5dH0IQGYXK_MLQd-42" value="WSO2 ESB Cluster" style="outlineConnect=0;dashed=0;verticalLabelPosition=bottom;verticalAlign=top;align=center;html=1;shape=mxgraph.aws3.emr_cluster;fillColor=#F58534;gradientColor=none;fontSize=13;" parent="1" vertex="1">
          <mxGeometry x="620" y="550" width="55.5" height="63" as="geometry" />
        </mxCell>
        <mxCell id="sU1Qf5dH0IQGYXK_MLQd-43" style="edgeStyle=orthogonalEdgeStyle;rounded=0;orthogonalLoop=1;jettySize=auto;html=1;entryX=0.5;entryY=0;entryDx=0;entryDy=0;entryPerimeter=0;fontSize=13;" parent="1" source="sU1Qf5dH0IQGYXK_MLQd-44" target="sU1Qf5dH0IQGYXK_MLQd-42" edge="1">
          <mxGeometry relative="1" as="geometry" />
        </mxCell>
        <mxCell id="sU1Qf5dH0IQGYXK_MLQd-44" value="EKS Network Security&lt;br&gt;Groups" style="sketch=0;outlineConnect=0;fontColor=#232F3E;gradientColor=none;fillColor=#232F3D;strokeColor=none;dashed=0;verticalLabelPosition=bottom;verticalAlign=top;align=center;html=1;fontSize=12;fontStyle=0;aspect=fixed;pointerEvents=1;shape=mxgraph.aws4.generic_firewall;" parent="1" vertex="1">
          <mxGeometry x="620" y="420" width="50" height="42.31" as="geometry" />
        </mxCell>
        <mxCell id="sU1Qf5dH0IQGYXK_MLQd-45" style="edgeStyle=orthogonalEdgeStyle;rounded=0;orthogonalLoop=1;jettySize=auto;html=1;entryX=0;entryY=0.5;entryDx=0;entryDy=0;entryPerimeter=0;fontSize=13;startArrow=none;" parent="1" source="sU1Qf5dH0IQGYXK_MLQd-50" target="sU1Qf5dH0IQGYXK_MLQd-42" edge="1">
          <mxGeometry relative="1" as="geometry">
            <Array as="points">
              <mxPoint x="580" y="582" />
            </Array>
          </mxGeometry>
        </mxCell>
        <mxCell id="sU1Qf5dH0IQGYXK_MLQd-46" style="edgeStyle=orthogonalEdgeStyle;rounded=0;orthogonalLoop=1;jettySize=auto;html=1;entryX=1;entryY=0.75;entryDx=0;entryDy=0;fontSize=13;" parent="1" source="sU1Qf5dH0IQGYXK_MLQd-48" target="sU1Qf5dH0IQGYXK_MLQd-52" edge="1">
          <mxGeometry relative="1" as="geometry" />
        </mxCell>
        <mxCell id="sU1Qf5dH0IQGYXK_MLQd-47" style="edgeStyle=orthogonalEdgeStyle;rounded=0;orthogonalLoop=1;jettySize=auto;html=1;fontSize=13;" parent="1" source="sU1Qf5dH0IQGYXK_MLQd-48" target="sU1Qf5dH0IQGYXK_MLQd-50" edge="1">
          <mxGeometry relative="1" as="geometry" />
        </mxCell>
        <mxCell id="sU1Qf5dH0IQGYXK_MLQd-48" value="EKYC Spring Boot API Instance" style="sketch=0;outlineConnect=0;fontColor=#232F3E;gradientColor=none;strokeColor=#ffffff;fillColor=#232F3E;dashed=0;verticalLabelPosition=middle;verticalAlign=bottom;align=center;html=1;whiteSpace=wrap;fontSize=10;fontStyle=1;spacing=3;shape=mxgraph.aws4.productIcon;prIcon=mxgraph.aws4.ec2;" parent="1" vertex="1">
          <mxGeometry x="310" y="521.5" width="80" height="120" as="geometry" />
        </mxCell>
        <mxCell id="sU1Qf5dH0IQGYXK_MLQd-49" style="edgeStyle=orthogonalEdgeStyle;rounded=0;orthogonalLoop=1;jettySize=auto;html=1;fontSize=13;" parent="1" source="sU1Qf5dH0IQGYXK_MLQd-50" target="sU1Qf5dH0IQGYXK_MLQd-48" edge="1">
          <mxGeometry relative="1" as="geometry" />
        </mxCell>
        <mxCell id="sU1Qf5dH0IQGYXK_MLQd-50" value="EKS Network Security&lt;br&gt;Groups" style="sketch=0;outlineConnect=0;fontColor=#232F3E;gradientColor=none;fillColor=#232F3D;strokeColor=none;dashed=0;verticalLabelPosition=bottom;verticalAlign=top;align=center;html=1;fontSize=12;fontStyle=0;aspect=fixed;pointerEvents=1;shape=mxgraph.aws4.generic_firewall;" parent="1" vertex="1">
          <mxGeometry x="490" y="550" width="50" height="42.31" as="geometry" />
        </mxCell>
        <mxCell id="sU1Qf5dH0IQGYXK_MLQd-51" style="edgeStyle=orthogonalEdgeStyle;rounded=0;orthogonalLoop=1;jettySize=auto;html=1;entryX=1;entryY=0.75;entryDx=0;entryDy=0;fontSize=13;" parent="1" source="sU1Qf5dH0IQGYXK_MLQd-52" target="sU1Qf5dH0IQGYXK_MLQd-55" edge="1">
          <mxGeometry relative="1" as="geometry" />
        </mxCell>
        <mxCell id="sU1Qf5dH0IQGYXK_MLQd-52" value="Palo Alto Internet&lt;br style=&quot;border-color: var(--border-color);&quot;&gt;Firewall" style="aspect=fixed;perimeter=ellipsePerimeter;html=1;align=center;shadow=0;dashed=0;spacingTop=3;image;image=img/lib/active_directory/firewall.svg;fontSize=13;fillColor=default;" parent="1" vertex="1">
          <mxGeometry x="180" y="540" width="30.5" height="50" as="geometry" />
        </mxCell>
        <mxCell id="sU1Qf5dH0IQGYXK_MLQd-53" style="edgeStyle=orthogonalEdgeStyle;rounded=0;orthogonalLoop=1;jettySize=auto;html=1;fontSize=13;" parent="1" source="sU1Qf5dH0IQGYXK_MLQd-55" target="sU1Qf5dH0IQGYXK_MLQd-57" edge="1">
          <mxGeometry relative="1" as="geometry" />
        </mxCell>
        <mxCell id="sU1Qf5dH0IQGYXK_MLQd-54" style="edgeStyle=orthogonalEdgeStyle;rounded=0;orthogonalLoop=1;jettySize=auto;html=1;entryX=0;entryY=0.5;entryDx=0;entryDy=0;fontSize=13;" parent="1" source="sU1Qf5dH0IQGYXK_MLQd-55" target="sU1Qf5dH0IQGYXK_MLQd-52" edge="1">
          <mxGeometry relative="1" as="geometry" />
        </mxCell>
        <mxCell id="sU1Qf5dH0IQGYXK_MLQd-55" value="NSDL API Server" style="aspect=fixed;perimeter=ellipsePerimeter;html=1;align=center;shadow=0;dashed=0;spacingTop=3;image;image=img/lib/active_directory/web_server.svg;fontSize=13;fillColor=default;" parent="1" vertex="1">
          <mxGeometry x="-60" y="540" width="77.2" height="96.5" as="geometry" />
        </mxCell>
        <mxCell id="sU1Qf5dH0IQGYXK_MLQd-56" style="edgeStyle=orthogonalEdgeStyle;rounded=0;orthogonalLoop=1;jettySize=auto;html=1;fontSize=13;" parent="1" source="sU1Qf5dH0IQGYXK_MLQd-57" edge="1">
          <mxGeometry relative="1" as="geometry">
            <mxPoint x="-20" y="640" as="targetPoint" />
          </mxGeometry>
        </mxCell>
        <mxCell id="sU1Qf5dH0IQGYXK_MLQd-57" value="UIDAI Server" style="aspect=fixed;perimeter=ellipsePerimeter;html=1;align=center;shadow=0;dashed=0;spacingTop=3;image;image=img/lib/active_directory/web_server.svg;fontSize=13;fillColor=default;" parent="1" vertex="1">
          <mxGeometry x="-70" y="730" width="77.2" height="96.5" as="geometry" />
        </mxCell>
        <mxCell id="0UItUe9iYHpbRCy2EA7e-2" value="Vault SQL DB" style="strokeWidth=2;html=1;shape=mxgraph.flowchart.database;whiteSpace=wrap;" vertex="1" parent="1">
          <mxGeometry x="410.25" y="1010" width="60" height="80" as="geometry" />
        </mxCell>
      </root>
    </mxGraphModel>
  </diagram>
  <diagram id="k9-Mw8U3H4Qc_pWF0mST" name="PROD Architecture">
    <mxGraphModel dx="1796" dy="622" grid="1" gridSize="10" guides="1" tooltips="1" connect="1" arrows="1" fold="1" page="1" pageScale="1" pageWidth="850" pageHeight="1100" math="0" shadow="0">
      <root>
        <mxCell id="0" />
        <mxCell id="1" parent="0" />
        <mxCell id="bqwMxK34lSYmR9rGJ01A-1" value="" style="rounded=0;whiteSpace=wrap;html=1;fillColor=#b1ddf0;strokeColor=#10739e;" vertex="1" parent="1">
          <mxGeometry x="80" y="330" width="720" height="360" as="geometry" />
        </mxCell>
        <mxCell id="bqwMxK34lSYmR9rGJ01A-2" style="edgeStyle=orthogonalEdgeStyle;rounded=0;orthogonalLoop=1;jettySize=auto;html=1;fontSize=13;" edge="1" parent="1" source="bqwMxK34lSYmR9rGJ01A-3" target="bqwMxK34lSYmR9rGJ01A-26">
          <mxGeometry relative="1" as="geometry">
            <Array as="points">
              <mxPoint x="440" y="350" />
              <mxPoint x="170" y="350" />
            </Array>
          </mxGeometry>
        </mxCell>
        <mxCell id="bqwMxK34lSYmR9rGJ01A-3" value="Internet Cloud&lt;br&gt;&amp;nbsp;Firewall" style="aspect=fixed;perimeter=ellipsePerimeter;html=1;align=center;shadow=0;dashed=0;spacingTop=3;image;image=img/lib/active_directory/firewall.svg;fontSize=13;fillColor=default;" vertex="1" parent="1">
          <mxGeometry x="425" y="290" width="30.5" height="50" as="geometry" />
        </mxCell>
        <mxCell id="bqwMxK34lSYmR9rGJ01A-4" value="" style="edgeStyle=orthogonalEdgeStyle;rounded=0;orthogonalLoop=1;jettySize=auto;html=1;" edge="1" parent="1" source="bqwMxK34lSYmR9rGJ01A-5" target="bqwMxK34lSYmR9rGJ01A-13">
          <mxGeometry relative="1" as="geometry" />
        </mxCell>
        <mxCell id="bqwMxK34lSYmR9rGJ01A-5" value="" style="rounded=0;whiteSpace=wrap;html=1;fillColor=#dae8fc;gradientColor=#7ea6e0;strokeColor=#6c8ebf;" vertex="1" parent="1">
          <mxGeometry x="120" y="40" width="640" height="70" as="geometry" />
        </mxCell>
        <mxCell id="bqwMxK34lSYmR9rGJ01A-6" value="&lt;b&gt;Applications&lt;/b&gt;" style="text;html=1;align=center;verticalAlign=middle;whiteSpace=wrap;rounded=0;fillColor=default;" vertex="1" parent="1">
          <mxGeometry x="400" y="20" width="90" height="30" as="geometry" />
        </mxCell>
        <mxCell id="bqwMxK34lSYmR9rGJ01A-7" value="Customer Portal" style="rounded=1;whiteSpace=wrap;html=1;fillColor=#fff2cc;gradientColor=#ffd966;strokeColor=#d6b656;" vertex="1" parent="1">
          <mxGeometry x="140" y="50" width="120" height="55" as="geometry" />
        </mxCell>
        <mxCell id="bqwMxK34lSYmR9rGJ01A-8" value="MChoice App" style="rounded=1;whiteSpace=wrap;html=1;fillColor=#ffcd28;gradientColor=#ffa500;strokeColor=#d79b00;" vertex="1" parent="1">
          <mxGeometry x="280" y="47.5" width="90" height="55" as="geometry" />
        </mxCell>
        <mxCell id="bqwMxK34lSYmR9rGJ01A-9" value="ISNP Web" style="rounded=1;whiteSpace=wrap;html=1;fillColor=#fff2cc;gradientColor=#ffd966;strokeColor=#d6b656;" vertex="1" parent="1">
          <mxGeometry x="390" y="47.5" width="100" height="55" as="geometry" />
        </mxCell>
        <mxCell id="bqwMxK34lSYmR9rGJ01A-10" value="Customer Mobile App" style="rounded=1;whiteSpace=wrap;html=1;fillColor=#ffcd28;gradientColor=#ffa500;strokeColor=#d79b00;" vertex="1" parent="1">
          <mxGeometry x="500" y="47.5" width="100" height="55" as="geometry" />
        </mxCell>
        <mxCell id="bqwMxK34lSYmR9rGJ01A-11" value="Digital Journey" style="rounded=1;whiteSpace=wrap;html=1;fillColor=#fff2cc;gradientColor=#ffd966;strokeColor=#d6b656;" vertex="1" parent="1">
          <mxGeometry x="620" y="47.5" width="120" height="55" as="geometry" />
        </mxCell>
        <mxCell id="bqwMxK34lSYmR9rGJ01A-12" style="edgeStyle=orthogonalEdgeStyle;rounded=0;orthogonalLoop=1;jettySize=auto;html=1;fontSize=13;" edge="1" parent="1" source="bqwMxK34lSYmR9rGJ01A-13" target="bqwMxK34lSYmR9rGJ01A-1">
          <mxGeometry relative="1" as="geometry" />
        </mxCell>
        <mxCell id="bqwMxK34lSYmR9rGJ01A-13" value="https://egw-prod.canarahsbclife.com" style="outlineConnect=0;dashed=0;verticalLabelPosition=bottom;verticalAlign=top;align=center;html=1;shape=mxgraph.aws3.ssl_padlock;fillColor=#D2D3D3;gradientColor=none;" vertex="1" parent="1">
          <mxGeometry x="408.5" y="150" width="63" height="78" as="geometry" />
        </mxCell>
        <mxCell id="bqwMxK34lSYmR9rGJ01A-15" style="edgeStyle=orthogonalEdgeStyle;rounded=0;orthogonalLoop=1;jettySize=auto;html=1;fontSize=13;" edge="1" parent="1" source="bqwMxK34lSYmR9rGJ01A-1">
          <mxGeometry relative="1" as="geometry">
            <mxPoint x="440" y="230" as="targetPoint" />
          </mxGeometry>
        </mxCell>
        <mxCell id="bqwMxK34lSYmR9rGJ01A-16" value="&lt;b&gt;&lt;font style=&quot;font-size: 13px;&quot;&gt;Choice Private Cloud&lt;/font&gt;&lt;/b&gt;" style="text;html=1;strokeColor=none;fillColor=default;align=center;verticalAlign=middle;whiteSpace=wrap;rounded=0;" vertex="1" parent="1">
          <mxGeometry x="90" y="300" width="140" height="30" as="geometry" />
        </mxCell>
        <mxCell id="bqwMxK34lSYmR9rGJ01A-17" style="edgeStyle=orthogonalEdgeStyle;rounded=0;orthogonalLoop=1;jettySize=auto;html=1;fontSize=13;" edge="1" parent="1" source="bqwMxK34lSYmR9rGJ01A-19">
          <mxGeometry relative="1" as="geometry">
            <mxPoint x="441.5" y="810" as="targetPoint" />
          </mxGeometry>
        </mxCell>
        <mxCell id="bqwMxK34lSYmR9rGJ01A-18" style="edgeStyle=orthogonalEdgeStyle;rounded=0;orthogonalLoop=1;jettySize=auto;html=1;fontSize=13;" edge="1" parent="1" source="bqwMxK34lSYmR9rGJ01A-19" target="bqwMxK34lSYmR9rGJ01A-24">
          <mxGeometry relative="1" as="geometry" />
        </mxCell>
        <mxCell id="bqwMxK34lSYmR9rGJ01A-19" value="" style="rounded=0;whiteSpace=wrap;html=1;fillColor=#fad7ac;strokeColor=#b46504;" vertex="1" parent="1">
          <mxGeometry x="81.5" y="836" width="720" height="304" as="geometry" />
        </mxCell>
        <mxCell id="bqwMxK34lSYmR9rGJ01A-20" value="&lt;span style=&quot;font-size: 13px;&quot;&gt;&lt;b&gt;Choice DC&lt;/b&gt;&lt;/span&gt;" style="text;html=1;strokeColor=none;fillColor=default;align=center;verticalAlign=middle;whiteSpace=wrap;rounded=0;" vertex="1" parent="1">
          <mxGeometry x="81.5" y="820" width="140" height="30" as="geometry" />
        </mxCell>
        <mxCell id="bqwMxK34lSYmR9rGJ01A-21" value="" style="edgeStyle=orthogonalEdgeStyle;rounded=0;orthogonalLoop=1;jettySize=auto;html=1;fontSize=13;" edge="1" parent="1" source="bqwMxK34lSYmR9rGJ01A-24" target="bqwMxK34lSYmR9rGJ01A-19">
          <mxGeometry relative="1" as="geometry" />
        </mxCell>
        <mxCell id="bqwMxK34lSYmR9rGJ01A-65" style="edgeStyle=orthogonalEdgeStyle;rounded=0;orthogonalLoop=1;jettySize=auto;html=1;entryX=0.5;entryY=1;entryDx=0;entryDy=0;entryPerimeter=0;fontSize=13;" edge="1" parent="1" source="bqwMxK34lSYmR9rGJ01A-24" target="bqwMxK34lSYmR9rGJ01A-42">
          <mxGeometry relative="1" as="geometry">
            <Array as="points">
              <mxPoint x="442" y="650" />
              <mxPoint x="648" y="650" />
            </Array>
          </mxGeometry>
        </mxCell>
        <mxCell id="bqwMxK34lSYmR9rGJ01A-24" value="AWS Direct Connect" style="sketch=0;outlineConnect=0;fontColor=#232F3E;gradientColor=none;strokeColor=#ffffff;fillColor=#232F3E;dashed=0;verticalLabelPosition=middle;verticalAlign=bottom;align=center;html=1;whiteSpace=wrap;fontSize=10;fontStyle=1;spacing=3;shape=mxgraph.aws4.productIcon;prIcon=mxgraph.aws4.direct_connect;" vertex="1" parent="1">
          <mxGeometry x="411.5" y="716" width="60" height="84" as="geometry" />
        </mxCell>
        <mxCell id="bqwMxK34lSYmR9rGJ01A-25" style="edgeStyle=orthogonalEdgeStyle;rounded=0;orthogonalLoop=1;jettySize=auto;html=1;fontSize=13;" edge="1" parent="1" source="bqwMxK34lSYmR9rGJ01A-26" target="bqwMxK34lSYmR9rGJ01A-28">
          <mxGeometry relative="1" as="geometry" />
        </mxCell>
        <mxCell id="bqwMxK34lSYmR9rGJ01A-26" value="WSO2 API Load&lt;br&gt;&amp;nbsp;Balancer" style="sketch=0;outlineConnect=0;fontColor=#232F3E;gradientColor=none;strokeColor=#232F3E;fillColor=#ffffff;dashed=0;verticalLabelPosition=bottom;verticalAlign=top;align=center;html=1;fontSize=12;fontStyle=0;aspect=fixed;shape=mxgraph.aws4.resourceIcon;resIcon=mxgraph.aws4.nat_gateway;" vertex="1" parent="1">
          <mxGeometry x="140" y="390" width="60" height="60" as="geometry" />
        </mxCell>
        <mxCell id="bqwMxK34lSYmR9rGJ01A-44" style="edgeStyle=orthogonalEdgeStyle;rounded=0;orthogonalLoop=1;jettySize=auto;html=1;fontSize=13;" edge="1" parent="1" source="bqwMxK34lSYmR9rGJ01A-28" target="bqwMxK34lSYmR9rGJ01A-31">
          <mxGeometry relative="1" as="geometry" />
        </mxCell>
        <mxCell id="bqwMxK34lSYmR9rGJ01A-28" value="EKS Network Security&lt;br&gt;Groups" style="sketch=0;outlineConnect=0;fontColor=#232F3E;gradientColor=none;fillColor=#232F3D;strokeColor=none;dashed=0;verticalLabelPosition=bottom;verticalAlign=top;align=center;html=1;fontSize=12;fontStyle=0;aspect=fixed;pointerEvents=1;shape=mxgraph.aws4.generic_firewall;" vertex="1" parent="1">
          <mxGeometry x="270" y="390" width="60" height="50.77" as="geometry" />
        </mxCell>
        <mxCell id="bqwMxK34lSYmR9rGJ01A-45" style="edgeStyle=orthogonalEdgeStyle;rounded=0;orthogonalLoop=1;jettySize=auto;html=1;fontSize=13;" edge="1" parent="1" source="bqwMxK34lSYmR9rGJ01A-31" target="bqwMxK34lSYmR9rGJ01A-28">
          <mxGeometry relative="1" as="geometry" />
        </mxCell>
        <mxCell id="bqwMxK34lSYmR9rGJ01A-48" style="edgeStyle=orthogonalEdgeStyle;rounded=0;orthogonalLoop=1;jettySize=auto;html=1;fontSize=13;" edge="1" parent="1" source="bqwMxK34lSYmR9rGJ01A-31" target="bqwMxK34lSYmR9rGJ01A-43">
          <mxGeometry relative="1" as="geometry" />
        </mxCell>
        <mxCell id="bqwMxK34lSYmR9rGJ01A-31" value="Gateway Cluster" style="outlineConnect=0;dashed=0;verticalLabelPosition=bottom;verticalAlign=top;align=center;html=1;shape=mxgraph.aws3.emr_cluster;fillColor=#F58534;gradientColor=none;fontSize=13;" vertex="1" parent="1">
          <mxGeometry x="470" y="420" width="55.5" height="63" as="geometry" />
        </mxCell>
        <mxCell id="bqwMxK34lSYmR9rGJ01A-32" style="edgeStyle=orthogonalEdgeStyle;rounded=0;orthogonalLoop=1;jettySize=auto;html=1;fontSize=13;" edge="1" parent="1" source="bqwMxK34lSYmR9rGJ01A-34" target="bqwMxK34lSYmR9rGJ01A-39">
          <mxGeometry relative="1" as="geometry" />
        </mxCell>
        <mxCell id="bqwMxK34lSYmR9rGJ01A-33" style="edgeStyle=orthogonalEdgeStyle;rounded=0;orthogonalLoop=1;jettySize=auto;html=1;entryX=0;entryY=0.5;entryDx=0;entryDy=0;fontSize=13;" edge="1" parent="1" source="bqwMxK34lSYmR9rGJ01A-34" target="bqwMxK34lSYmR9rGJ01A-41">
          <mxGeometry relative="1" as="geometry">
            <Array as="points">
              <mxPoint x="215" y="858" />
            </Array>
          </mxGeometry>
        </mxCell>
        <mxCell id="bqwMxK34lSYmR9rGJ01A-34" value="Vault API Integration&amp;nbsp;&lt;br&gt;Server" style="aspect=fixed;perimeter=ellipsePerimeter;html=1;align=center;shadow=0;dashed=0;spacingTop=3;image;image=img/lib/active_directory/web_server.svg;fontSize=13;fillColor=default;" vertex="1" parent="1">
          <mxGeometry x="180" y="950" width="70" height="87.5" as="geometry" />
        </mxCell>
        <mxCell id="bqwMxK34lSYmR9rGJ01A-35" style="edgeStyle=orthogonalEdgeStyle;rounded=0;orthogonalLoop=1;jettySize=auto;html=1;fontSize=13;" edge="1" parent="1" source="bqwMxK34lSYmR9rGJ01A-36" target="bqwMxK34lSYmR9rGJ01A-39">
          <mxGeometry relative="1" as="geometry" />
        </mxCell>
        <mxCell id="bqwMxK34lSYmR9rGJ01A-36" value="HSM Vault" style="sketch=0;outlineConnect=0;fontColor=#232F3E;gradientColor=none;strokeColor=#232F3E;fillColor=#ffffff;dashed=0;verticalLabelPosition=bottom;verticalAlign=top;align=center;html=1;fontSize=12;fontStyle=0;aspect=fixed;shape=mxgraph.aws4.resourceIcon;resIcon=mxgraph.aws4.vault;" vertex="1" parent="1">
          <mxGeometry x="500" y="964" width="60" height="60" as="geometry" />
        </mxCell>
        <mxCell id="bqwMxK34lSYmR9rGJ01A-37" style="edgeStyle=orthogonalEdgeStyle;rounded=0;orthogonalLoop=1;jettySize=auto;html=1;fontSize=13;" edge="1" parent="1" source="bqwMxK34lSYmR9rGJ01A-39" target="bqwMxK34lSYmR9rGJ01A-36">
          <mxGeometry relative="1" as="geometry" />
        </mxCell>
        <mxCell id="bqwMxK34lSYmR9rGJ01A-38" style="edgeStyle=orthogonalEdgeStyle;rounded=0;orthogonalLoop=1;jettySize=auto;html=1;fontSize=13;" edge="1" parent="1" source="bqwMxK34lSYmR9rGJ01A-39" target="bqwMxK34lSYmR9rGJ01A-34">
          <mxGeometry relative="1" as="geometry" />
        </mxCell>
        <mxCell id="bqwMxK34lSYmR9rGJ01A-39" value="Firewall" style="image;html=1;image=img/lib/clip_art/networking/Firewall_128x128.png;fontSize=13;fillColor=default;" vertex="1" parent="1">
          <mxGeometry x="329" y="964" width="80" height="80" as="geometry" />
        </mxCell>
        <mxCell id="bqwMxK34lSYmR9rGJ01A-40" style="edgeStyle=orthogonalEdgeStyle;rounded=0;orthogonalLoop=1;jettySize=auto;html=1;fontSize=13;" edge="1" parent="1" source="bqwMxK34lSYmR9rGJ01A-41" target="bqwMxK34lSYmR9rGJ01A-34">
          <mxGeometry relative="1" as="geometry" />
        </mxCell>
        <mxCell id="bqwMxK34lSYmR9rGJ01A-41" value="Firewall" style="image;html=1;image=img/lib/clip_art/networking/Firewall_02_128x128.png;fontSize=13;fillColor=default;" vertex="1" parent="1">
          <mxGeometry x="401.5" y="836" width="80" height="44" as="geometry" />
        </mxCell>
        <mxCell id="bqwMxK34lSYmR9rGJ01A-64" style="edgeStyle=orthogonalEdgeStyle;rounded=0;orthogonalLoop=1;jettySize=auto;html=1;fontSize=13;" edge="1" parent="1" source="bqwMxK34lSYmR9rGJ01A-42" target="bqwMxK34lSYmR9rGJ01A-24">
          <mxGeometry relative="1" as="geometry">
            <Array as="points">
              <mxPoint x="648" y="650" />
              <mxPoint x="442" y="650" />
            </Array>
          </mxGeometry>
        </mxCell>
        <mxCell id="bqwMxK34lSYmR9rGJ01A-68" style="edgeStyle=orthogonalEdgeStyle;rounded=0;orthogonalLoop=1;jettySize=auto;html=1;entryX=0.864;entryY=0.756;entryDx=0;entryDy=0;entryPerimeter=0;fontSize=13;" edge="1" parent="1" source="bqwMxK34lSYmR9rGJ01A-42" target="bqwMxK34lSYmR9rGJ01A-53">
          <mxGeometry relative="1" as="geometry" />
        </mxCell>
        <mxCell id="bqwMxK34lSYmR9rGJ01A-42" value="WSO2 ESB Cluster" style="outlineConnect=0;dashed=0;verticalLabelPosition=bottom;verticalAlign=top;align=center;html=1;shape=mxgraph.aws3.emr_cluster;fillColor=#F58534;gradientColor=none;fontSize=13;" vertex="1" parent="1">
          <mxGeometry x="620" y="550" width="55.5" height="63" as="geometry" />
        </mxCell>
        <mxCell id="bqwMxK34lSYmR9rGJ01A-49" style="edgeStyle=orthogonalEdgeStyle;rounded=0;orthogonalLoop=1;jettySize=auto;html=1;entryX=0.5;entryY=0;entryDx=0;entryDy=0;entryPerimeter=0;fontSize=13;" edge="1" parent="1" source="bqwMxK34lSYmR9rGJ01A-43" target="bqwMxK34lSYmR9rGJ01A-42">
          <mxGeometry relative="1" as="geometry" />
        </mxCell>
        <mxCell id="bqwMxK34lSYmR9rGJ01A-43" value="EKS Network Security&lt;br&gt;Groups" style="sketch=0;outlineConnect=0;fontColor=#232F3E;gradientColor=none;fillColor=#232F3D;strokeColor=none;dashed=0;verticalLabelPosition=bottom;verticalAlign=top;align=center;html=1;fontSize=12;fontStyle=0;aspect=fixed;pointerEvents=1;shape=mxgraph.aws4.generic_firewall;" vertex="1" parent="1">
          <mxGeometry x="620" y="420" width="50" height="42.31" as="geometry" />
        </mxCell>
        <mxCell id="bqwMxK34lSYmR9rGJ01A-51" style="edgeStyle=orthogonalEdgeStyle;rounded=0;orthogonalLoop=1;jettySize=auto;html=1;entryX=0;entryY=0.5;entryDx=0;entryDy=0;entryPerimeter=0;fontSize=13;startArrow=none;" edge="1" parent="1" source="bqwMxK34lSYmR9rGJ01A-53" target="bqwMxK34lSYmR9rGJ01A-42">
          <mxGeometry relative="1" as="geometry">
            <Array as="points">
              <mxPoint x="580" y="582" />
            </Array>
          </mxGeometry>
        </mxCell>
        <mxCell id="bqwMxK34lSYmR9rGJ01A-57" style="edgeStyle=orthogonalEdgeStyle;rounded=0;orthogonalLoop=1;jettySize=auto;html=1;entryX=1;entryY=0.75;entryDx=0;entryDy=0;fontSize=13;" edge="1" parent="1" source="bqwMxK34lSYmR9rGJ01A-50" target="bqwMxK34lSYmR9rGJ01A-55">
          <mxGeometry relative="1" as="geometry" />
        </mxCell>
        <mxCell id="bqwMxK34lSYmR9rGJ01A-67" style="edgeStyle=orthogonalEdgeStyle;rounded=0;orthogonalLoop=1;jettySize=auto;html=1;fontSize=13;" edge="1" parent="1" source="bqwMxK34lSYmR9rGJ01A-50" target="bqwMxK34lSYmR9rGJ01A-53">
          <mxGeometry relative="1" as="geometry" />
        </mxCell>
        <mxCell id="bqwMxK34lSYmR9rGJ01A-50" value="EKYC Spring Boot API Instance" style="sketch=0;outlineConnect=0;fontColor=#232F3E;gradientColor=none;strokeColor=#ffffff;fillColor=#232F3E;dashed=0;verticalLabelPosition=middle;verticalAlign=bottom;align=center;html=1;whiteSpace=wrap;fontSize=10;fontStyle=1;spacing=3;shape=mxgraph.aws4.productIcon;prIcon=mxgraph.aws4.ec2;" vertex="1" parent="1">
          <mxGeometry x="310" y="521.5" width="80" height="120" as="geometry" />
        </mxCell>
        <mxCell id="bqwMxK34lSYmR9rGJ01A-66" style="edgeStyle=orthogonalEdgeStyle;rounded=0;orthogonalLoop=1;jettySize=auto;html=1;fontSize=13;" edge="1" parent="1" source="bqwMxK34lSYmR9rGJ01A-53" target="bqwMxK34lSYmR9rGJ01A-50">
          <mxGeometry relative="1" as="geometry" />
        </mxCell>
        <mxCell id="bqwMxK34lSYmR9rGJ01A-53" value="EKS Network Security&lt;br&gt;Groups" style="sketch=0;outlineConnect=0;fontColor=#232F3E;gradientColor=none;fillColor=#232F3D;strokeColor=none;dashed=0;verticalLabelPosition=bottom;verticalAlign=top;align=center;html=1;fontSize=12;fontStyle=0;aspect=fixed;pointerEvents=1;shape=mxgraph.aws4.generic_firewall;" vertex="1" parent="1">
          <mxGeometry x="490" y="550" width="50" height="42.31" as="geometry" />
        </mxCell>
        <mxCell id="bqwMxK34lSYmR9rGJ01A-61" style="edgeStyle=orthogonalEdgeStyle;rounded=0;orthogonalLoop=1;jettySize=auto;html=1;entryX=1;entryY=0.75;entryDx=0;entryDy=0;fontSize=13;" edge="1" parent="1" source="bqwMxK34lSYmR9rGJ01A-55" target="bqwMxK34lSYmR9rGJ01A-58">
          <mxGeometry relative="1" as="geometry" />
        </mxCell>
        <mxCell id="bqwMxK34lSYmR9rGJ01A-55" value="Internet Cloud&lt;br&gt;&amp;nbsp;Firewall" style="aspect=fixed;perimeter=ellipsePerimeter;html=1;align=center;shadow=0;dashed=0;spacingTop=3;image;image=img/lib/active_directory/firewall.svg;fontSize=13;fillColor=default;" vertex="1" parent="1">
          <mxGeometry x="180" y="540" width="30.5" height="50" as="geometry" />
        </mxCell>
        <mxCell id="bqwMxK34lSYmR9rGJ01A-60" style="edgeStyle=orthogonalEdgeStyle;rounded=0;orthogonalLoop=1;jettySize=auto;html=1;fontSize=13;" edge="1" parent="1" source="bqwMxK34lSYmR9rGJ01A-58" target="bqwMxK34lSYmR9rGJ01A-59">
          <mxGeometry relative="1" as="geometry" />
        </mxCell>
        <mxCell id="bqwMxK34lSYmR9rGJ01A-62" style="edgeStyle=orthogonalEdgeStyle;rounded=0;orthogonalLoop=1;jettySize=auto;html=1;entryX=0;entryY=0.5;entryDx=0;entryDy=0;fontSize=13;" edge="1" parent="1" source="bqwMxK34lSYmR9rGJ01A-58" target="bqwMxK34lSYmR9rGJ01A-55">
          <mxGeometry relative="1" as="geometry" />
        </mxCell>
        <mxCell id="bqwMxK34lSYmR9rGJ01A-58" value="NSDL API Server" style="aspect=fixed;perimeter=ellipsePerimeter;html=1;align=center;shadow=0;dashed=0;spacingTop=3;image;image=img/lib/active_directory/web_server.svg;fontSize=13;fillColor=default;" vertex="1" parent="1">
          <mxGeometry x="-60" y="540" width="77.2" height="96.5" as="geometry" />
        </mxCell>
        <mxCell id="bqwMxK34lSYmR9rGJ01A-63" style="edgeStyle=orthogonalEdgeStyle;rounded=0;orthogonalLoop=1;jettySize=auto;html=1;fontSize=13;" edge="1" parent="1" source="bqwMxK34lSYmR9rGJ01A-59">
          <mxGeometry relative="1" as="geometry">
            <mxPoint x="-20" y="640" as="targetPoint" />
          </mxGeometry>
        </mxCell>
        <mxCell id="bqwMxK34lSYmR9rGJ01A-59" value="UIDAI Server" style="aspect=fixed;perimeter=ellipsePerimeter;html=1;align=center;shadow=0;dashed=0;spacingTop=3;image;image=img/lib/active_directory/web_server.svg;fontSize=13;fillColor=default;" vertex="1" parent="1">
          <mxGeometry x="-70" y="730" width="77.2" height="96.5" as="geometry" />
        </mxCell>
      </root>
    </mxGraphModel>
  </diagram>
</mxfile>
